# xmcd CD database file
#
# Track frame offsets:
#	150
#	38059
#	89628
#	131449
#	184796
#
# Disc length: 3042 seconds
#
# Revision: 0
# Processed by: cddbd v1.5.2PL0 Copyright (c) Steve Scherf et al.
# Submitted via: CDex 1.70beta3
#
DISCID=3c0be005
DTITLE=Ivo Perelman - Joe Morris - Gerald Cleaver - Living Jelly
DYEAR=2012
DGENRE=Jazz
TTITLE0=In Pursuit of Pleasure
TTITLE1=Playing with Mercury
TTITLE2=The Sloth
TTITLE3=Enigma
TTITLE4=Living Jelly
EXTD=YEAR: 2012
EXTT0=
EXTT1=
EXTT2=
EXTT3=
EXTT4=
PLAYORDER=
